<svg width="26" height="26" viewBox="0 0 26 26" fill="none" xmlns="http://www.w3.org/2000/svg">
<path d="M27.5004 -0.499956C26.5472 -1.45337 22.4689 8.64267e-06 21.1261 8.64267e-06H4.876C3.53324 8.64267e-06 0.954912 -0.953372 0.00132084 4.09484e-05C-0.952092 0.953632 0.00103211 3.53216 0.00103211 4.87498V21.1249C0.00103211 22.4676 -2.95341 27.0464 -2 28C-1.04641 28.9536 3.53324 26.0001 4.876 26.0001H21.1259C22.4687 26.0001 25.5472 27.9536 26.5004 27C27.454 26.0464 26.0007 22.4677 26.0007 21.1249V4.87498C26.0006 3.53216 28.4537 0.453457 27.5004 -0.499956ZM21.6677 13.5415C21.6677 14.0155 21.4473 14.3482 21.0074 14.5402C20.8609 14.5966 20.7194 14.6248 20.5842 14.6248C20.2798 14.6248 20.0258 14.5174 19.8225 14.3032L17.3852 11.8658L8.3465 20.905C8.13181 21.1192 7.87812 21.2266 7.58464 21.2266C7.29105 21.2266 7.03712 21.1192 6.82273 20.905L5.0962 19.1781C4.88175 18.9641 4.7745 18.7097 4.7745 18.4165C4.7745 18.1233 4.88175 17.8693 5.0962 17.655L14.1354 8.61571L11.6979 6.17825C11.348 5.85098 11.269 5.45624 11.4608 4.99338C11.6525 4.5534 11.9856 4.33314 12.4596 4.33314H20.5842C20.8776 4.33314 21.1316 4.44046 21.3463 4.65496C21.5605 4.86923 21.6677 5.12322 21.6677 5.41664L21.6677 13.5415Z" fill="#F7F7F7"/>
</svg>
