<svg width="300" height="300" viewBox="0 0 300 300" fill="none" xmlns="http://www.w3.org/2000/svg">
<g clip-path="url(#clipGermany)">
<path d="M9.32983 202.174C30.5238 259.293 85.5052 300 150 300C214.495 300 269.476 259.293 290.67 202.174L150 189.131L9.32983 202.174Z" fill="#FFDA44"/>
<path d="M150 0C85.5052 0 30.5238 40.7063 9.32983 97.8264L150 110.869L290.67 97.8258C269.476 40.7062 214.495 0 150 0Z" fill="black"/>
<path d="M9.32988 97.8262C3.30059 114.076 0 131.652 0 150C0 168.348 3.30059 185.924 9.32988 202.173H290.671C296.7 185.924 300 168.348 300 150C300 131.652 296.7 114.076 290.67 97.8262H9.32988Z" fill="#D80027"/>
</g>
<defs>
<clipPath id="clipGermany">
<rect width="300" height="300" fill="white"/>
</clipPath>
</defs>
</svg>
