<svg  class="page-link-icon" width="44" height="43" viewBox="0 0 44 43" fill="none" xmlns="http://www.w3.org/2000/svg">
<path d="M19.1325 14.0157C19.2114 14.1728 19.2903 14.3298 19.3692 14.4476C19.4481 14.5654 19.5665 14.6831 19.6454 14.8009C19.7637 14.9187 19.8821 15.0365 20.0399 15.1543C20.1582 15.2328 20.316 15.3506 20.5132 15.3898C20.671 15.4683 20.8288 15.5076 21.0261 15.5469C21.2233 15.5861 21.3811 15.5861 21.5389 15.5861C21.6967 15.5861 21.8939 15.5861 22.0517 15.5469C22.2095 15.5076 22.3673 15.4683 22.4857 15.3898H22.5251C22.6829 15.3113 22.8407 15.2328 22.9985 15.115C23.1168 15.0365 23.2352 14.9187 23.3535 14.8009L23.393 14.7617C23.5113 14.6439 23.5902 14.5261 23.6691 14.4083C23.748 14.2905 23.8269 14.1728 23.8663 14.0157C23.8663 13.9765 23.8663 13.9765 23.9058 13.9372C23.9847 13.7802 24.0241 13.5839 24.0636 13.4268C24.103 13.2698 24.103 13.0735 24.103 12.9164C24.103 12.7594 24.103 12.5631 24.0636 12.4061C24.0241 12.249 23.9847 12.092 23.9058 11.8957C23.7874 11.6209 23.6297 11.3853 23.4324 11.189C23.393 11.1498 23.393 11.1498 23.3535 11.1105C23.2352 10.9927 23.1168 10.9142 22.959 10.7964C22.8012 10.7179 22.6829 10.6394 22.5251 10.5609C22.3673 10.4823 22.2095 10.4431 22.0517 10.4038C21.8545 10.3646 21.6967 10.3646 21.5389 10.3646C21.3811 10.3646 21.1839 10.3646 21.0261 10.4038C20.8683 10.4431 20.7105 10.4823 20.5527 10.5609H20.5132C20.3554 10.6394 20.1977 10.7179 20.0793 10.7964C19.9215 10.9142 19.8032 10.9927 19.6848 11.1105C19.5665 11.2283 19.4481 11.3461 19.3692 11.4638C19.2903 11.5816 19.2114 11.7387 19.1325 11.8957C19.0536 12.0527 19.0142 12.2098 18.9748 12.3668C18.9353 12.5631 18.9353 12.7201 18.9353 12.8772C18.9353 13.0342 18.9353 13.2305 18.9748 13.3876C19.0142 13.7016 19.0931 13.8587 19.1325 14.0157Z" fill="#EEEFF1"/>
<path d="M24.6158 28.3848H23.7085V18.7662C23.7085 18.2165 23.2746 17.7454 22.6829 17.7454H18.5408C17.9885 17.7454 17.5151 18.1773 17.5151 18.7662V20.8862C17.5151 21.4358 17.9491 21.907 18.5408 21.907H19.3692V28.4241H18.5408C17.9885 28.4241 17.5151 28.8559 17.5151 29.4448V31.5649C17.5151 32.1145 17.9491 32.5856 18.5408 32.5856H24.6158C25.1681 32.5856 25.6415 32.1538 25.6415 31.5649V29.4448C25.6415 28.8559 25.1681 28.3848 24.6158 28.3848Z" fill="#EEEFF1"/>
<path d="M21.5782 0C9.66484 0 0 9.61865 0 21.4751C0 33.3316 9.66484 42.9502 21.5782 42.9502C33.4916 42.9502 43.1565 33.3316 43.1565 21.4751C43.1565 9.61865 33.4916 0 21.5782 0ZM21.5782 40.1235C11.2428 40.1235 2.84028 31.7612 2.84028 21.4751C2.84028 11.189 11.2428 2.8267 21.5782 2.8267C31.9137 2.8267 40.3162 11.189 40.3162 21.4751C40.3162 31.7612 31.9137 40.1235 21.5782 40.1235Z" fill="#EEEFF1"/>
</svg>
