<svg width="32" height="24" viewBox="0 0 32 24" fill="none" xmlns="http://www.w3.org/2000/svg">
<path d="M0 0.256531V1.47885V21.976V23.1983H31.9795V21.976V1.47885V0.256531H0ZM19.5208 12.0283L16.6181 14.9478C16.2653 15.2759 15.7131 15.2754 15.3752 14.9617L12.4581 12.0283L12.4837 12.0033L1.94382 1.32359H30.0426L19.4952 12.0038L19.5208 12.0283ZM10.9391 12.0118L1.06598 21.5204V2.0828L10.9391 12.0118ZM11.6906 12.7678L14.6343 15.7284C15.0122 16.081 15.4972 16.2582 15.9844 16.2582C16.4763 16.2582 16.9704 16.0773 17.36 15.714L20.2894 12.7678L30.0095 22.1313H1.9646L11.6906 12.7678ZM21.0409 12.0123L30.9135 2.08227V21.5204L21.0409 12.0123Z" fill="#4D4D4D"/>
</svg>
