<svg  class="page-link-icon"  width="43" height="37" viewBox="0 0 43 37" fill="none" xmlns="http://www.w3.org/2000/svg">
<path d="M0.00378474 18.5049C0.0564076 19.3898 0.644029 20.1345 1.49476 20.3886L17.2465 25.146L17.8254 35.9925C17.8517 36.4218 18.1411 36.7985 18.5533 36.9387C18.6673 36.9825 18.7901 37 18.9041 37C19.2111 37 19.5005 36.8773 19.711 36.6408L25.2803 30.4816L33.1737 35.9399C33.5245 36.1852 33.9367 36.3166 34.3665 36.3166C35.3575 36.3166 36.217 35.6157 36.4275 34.6345L42.9791 1.28022C43.058 0.894722 42.9089 0.491702 42.6107 0.246386C42.3038 -0.00769123 41.8915 -0.0690204 41.5232 0.0799216L1.26673 16.446C0.451079 16.814 -0.0488381 17.62 0.00378474 18.5049ZM19.825 33.3027L19.4655 26.4602L23.4999 29.2463L19.825 33.3027ZM34.3314 34.1351L19.9654 24.1998L40.1111 4.73217L34.3314 34.1351ZM37.901 3.87356L17.9832 23.1221L2.24902 18.3735L37.901 3.87356Z" fill="#60676C"/>
</svg>
