<svg  class="page-link-icon" width="47" height="36" viewBox="0 0 47 36" fill="none" xmlns="http://www.w3.org/2000/svg">
<path d="M0.761129 11.1369L23.0081 20.8963C23.1651 20.9666 23.3327 21 23.5007 21C23.6686 21 23.8355 20.9648 23.9932 20.8963L46.2398 11.1369C46.7095 10.9304 47.0104 10.4536 46.9997 9.92992C46.9892 9.40591 46.6694 8.94197 46.1923 8.75652L23.9451 0.0842845C23.6577 -0.0280948 23.3413 -0.0280948 23.0545 0.0842845L0.808141 8.75636C0.331056 8.94181 0.0114013 9.4067 0.000266719 9.92976C-0.0102493 10.4527 0.291003 10.9312 0.761129 11.1369ZM23.4999 2.65776L42.4029 10.0263L23.4999 18.3192L4.59668 10.0265L23.4999 2.65776Z" fill="#60676C"/>
<path d="M0.761054 16.3778L23.5005 26L46.2395 16.3778C46.8764 16.1086 47.1708 15.3805 46.8985 14.752C46.6269 14.1247 45.893 13.8301 45.2544 14.1005L23.5005 23.3063L1.74587 14.1005C1.10933 13.8308 0.373652 14.1239 0.101311 14.752C-0.17103 15.3813 0.124663 16.1086 0.761054 16.3778Z" fill="#60676C"/>
<path d="M0.761054 21.3775L23.5005 31L46.2395 21.3775C46.8764 21.1083 47.1708 20.381 46.8985 19.7522C46.6269 19.1249 45.893 18.8298 45.2544 19.1007L23.5005 28.3064L1.74587 19.1009C1.10933 18.8315 0.373652 19.1241 0.101311 19.7523C-0.17103 20.3812 0.124663 21.1083 0.761054 21.3775Z" fill="#60676C"/>
<path d="M0.761054 26.3772L23.5005 36L46.2395 26.3772C46.8764 26.1078 47.1708 25.3805 46.8985 24.7516C46.6269 24.1243 45.893 23.831 45.2544 24.1001L23.5005 33.3062L1.74587 24.1001C1.10933 23.8309 0.373652 24.1235 0.101311 24.7516C-0.17103 25.3805 0.124663 26.1078 0.761054 26.3772Z" fill="#60676C"/>
</svg>
