<svg width="38" height="32" viewBox="0 0 38 32" fill="none" xmlns="http://www.w3.org/2000/svg">
<path d="M38.0001 4.49029C36.6173 5.10391 35.135 5.51811 33.576 5.70987C35.1656 4.75492 36.3913 3.24004 36.9659 1.44136C35.4797 2.32728 33.8327 2.97158 32.0746 3.31291C30.665 1.80953 28.6541 0.866089 26.4516 0.866089C22.1961 0.866089 18.7527 4.32155 18.7527 8.58238C18.7527 9.18833 18.8178 9.77894 18.9518 10.3427C12.5475 10.0244 6.85947 6.94861 3.06361 2.27358C2.40479 3.41262 2.02176 4.74341 2.02176 6.15091C2.02176 8.82783 3.38153 11.1941 5.44991 12.5786C4.19356 12.5479 2.9985 12.1951 1.96431 11.616C1.96431 11.6467 1.96431 11.6812 1.96431 11.7119C1.96431 15.4549 4.62256 18.5691 8.14646 19.2786C7.50297 19.455 6.81734 19.5509 6.11639 19.5509C5.62227 19.5509 5.13965 19.5048 4.66852 19.409C5.64526 22.4771 8.49502 24.7053 11.8657 24.7705C9.23428 26.8415 5.90955 28.0764 2.29754 28.0764C1.67703 28.0764 1.06418 28.038 0.458984 27.9652C3.85649 30.178 7.90515 31.4551 12.2488 31.4551C26.4248 31.4551 34.1812 19.6928 34.1812 9.48747C34.1812 9.15382 34.1736 8.82016 34.1583 8.49034C35.6521 7.39733 36.9659 6.04352 38.0001 4.49029ZM33.4037 7.45102L32.8483 7.85754L32.8789 8.54403C32.8942 8.84701 32.9019 9.16532 32.9019 9.48364C32.9019 11.8883 32.4308 14.4041 31.5498 16.7704C30.619 19.2556 29.2822 21.503 27.5739 23.4435C25.743 25.5222 23.5789 27.1483 21.1236 28.2873C18.4347 29.5376 15.4509 30.1665 12.2526 30.1665C9.95438 30.1665 7.68682 29.783 5.53035 29.0352C6.31939 28.8856 7.08929 28.667 7.84387 28.4062C9.57135 27.8002 11.1763 26.9182 12.6241 25.7791L15.4318 23.5739L11.8619 23.5087C9.78585 23.4704 7.90898 22.4426 6.74839 20.8088C7.3306 20.7704 7.90132 20.6669 8.45672 20.5135L13.2868 18.9027L8.37628 18.036C6.02446 17.5681 4.17824 15.8154 3.50027 13.5911C4.12078 13.7521 4.72598 13.8135 5.40011 13.8557C5.40011 13.8557 7.92813 13.9669 9.83947 13.848C8.80528 13.3533 6.14703 11.5239 6.14703 11.5239C4.35826 10.3197 3.28194 8.32159 3.28194 6.15474C3.28194 5.64467 3.34706 5.13459 3.45814 4.63986C5.20094 6.4232 7.19654 7.91507 9.43346 9.06177C12.3752 10.5843 15.5505 11.4357 18.8676 11.6006L20.5529 11.6888L20.1699 10.0397C20.0588 9.56801 20.0013 9.07711 20.0013 8.56704C20.0013 5.03105 22.8894 2.13935 26.4363 2.13935C28.2097 2.13935 29.9219 2.87953 31.1285 4.17965L31.6149 4.69739L32.3082 4.56316C32.6644 4.49029 33.0168 4.41359 33.3654 4.31771C33.2849 4.42893 32.9134 4.80477 32.4921 5.17678C32.1358 5.4951 31.0748 6.49223 31.0748 6.49223C31.0748 6.49223 32.109 6.81822 32.7525 6.89109C33.396 6.96395 34.1353 6.84507 34.2578 6.82589C34.0395 7.00614 33.6412 7.28611 33.4037 7.45102Z" fill="#4D4D4D"/>
</svg>
