<svg width="300" height="300" viewBox="0 0 300 300" fill="none" xmlns="http://www.w3.org/2000/svg">
<g clip-path="url(#clipUS)">
<path d="M150 300C232.843 300 300 232.843 300 150C300 67.1573 232.843 0 150 0C67.1573 0 0 67.1573 0 150C0 232.843 67.1573 300 150 300Z" fill="#F0F0F0"/>
<path d="M143.48 149.993H300.001C300.001 136.454 298.197 123.339 294.834 110.862H143.48V149.993Z" fill="#D80027"/>
<path d="M143.48 71.7371H277.985C268.803 56.7535 257.063 43.5096 243.374 32.6064H143.48V71.7371Z" fill="#D80027"/>
<path d="M150 299.996C185.303 299.996 217.75 287.795 243.373 267.388H56.6278C82.2509 287.795 114.698 299.996 150 299.996Z" fill="#D80027"/>
<path d="M22.0164 228.263H277.984C285.356 216.234 291.073 203.085 294.833 189.132H5.16772C8.92769 203.085 14.6447 216.234 22.0164 228.263Z" fill="#D80027"/>
<path d="M69.4828 23.4246H83.1521L70.4373 32.6619L75.2941 47.6086L62.5799 38.3713L49.8656 47.6086L54.0609 34.6963C42.866 44.0215 33.0539 54.9469 24.968 67.1203H29.3479L21.2543 73.0002C19.9934 75.1037 18.784 77.2406 17.625 79.4092L21.4898 91.3043L14.2793 86.0654C12.4869 89.8629 10.8475 93.7459 9.37383 97.7098L13.6318 110.816H29.3479L16.633 120.053L21.4898 135L8.77559 125.763L1.15957 131.296C0.397266 137.424 0 143.665 0 150H150C150 67.1578 150 57.3914 150 0C120.368 0 92.7451 8.5957 69.4828 23.4246ZM75.2941 135L62.5799 125.763L49.8656 135L54.7225 120.053L42.0076 110.816H57.7236L62.5799 95.8693L67.4361 110.816H83.1521L70.4373 120.053L75.2941 135ZM70.4373 76.3576L75.2941 91.3043L62.5799 82.067L49.8656 91.3043L54.7225 76.3576L42.0076 67.1203H57.7236L62.5799 52.1736L67.4361 67.1203H83.1521L70.4373 76.3576ZM129.098 135L116.384 125.763L103.67 135L108.527 120.053L95.8119 110.816H111.528L116.384 95.8693L121.24 110.816H136.956L124.242 120.053L129.098 135ZM124.242 76.3576L129.098 91.3043L116.384 82.067L103.67 91.3043L108.527 76.3576L95.8119 67.1203H111.528L116.384 52.1736L121.24 67.1203H136.956L124.242 76.3576ZM124.242 32.6619L129.098 47.6086L116.384 38.3713L103.67 47.6086L108.527 32.6619L95.8119 23.4246H111.528L116.384 8.47793L121.24 23.4246H136.956L124.242 32.6619Z" fill="#0052B4"/>
</g>
<defs>
<clipPath id="clipUS">
<rect width="300" height="300" fill="white"/>
</clipPath>
</defs>
</svg>
