<svg  class="page-link-icon" width="38" height="38" viewBox="0 0 38 38" fill="none" xmlns="http://www.w3.org/2000/svg">
<path d="M32.4351 24.5649C30.3656 22.4956 27.9025 20.9636 25.215 20.0362C28.0934 18.0538 29.9844 14.736 29.9844 10.9844C29.9844 4.92761 25.0568 0 19 0C12.9432 0 8.01562 4.92761 8.01562 10.9844C8.01562 14.736 9.90664 18.0538 12.7851 20.0362C10.0976 20.9636 7.63444 22.4956 5.565 24.5649C1.97637 28.1536 0 32.9249 0 38H2.96875C2.96875 29.1603 10.1603 21.9688 19 21.9688C27.8397 21.9688 35.0312 29.1603 35.0312 38H38C38 32.9249 36.0236 28.1536 32.4351 24.5649ZM19 19C14.5802 19 10.9844 15.4043 10.9844 10.9844C10.9844 6.5645 14.5802 2.96875 19 2.96875C23.4198 2.96875 27.0156 6.5645 27.0156 10.9844C27.0156 15.4043 23.4198 19 19 19Z" fill="#60676C"/>
</svg>
