<svg class="page-link-icon" width="38" height="38" viewBox="0 0 38 38" fill="none" xmlns="http://www.w3.org/2000/svg">
<path d="M35.5386 2.45965C32.2676 -0.819882 26.9481 -0.819882 23.6771 2.45965L1.92948 24.2017C1.75945 24.3717 1.6542 24.5904 1.62181 24.8252L0.0105814 36.7611C-0.0379984 37.1012 0.0834511 37.4413 0.318254 37.6761C0.52067 37.8785 0.804052 38 1.08743 38C1.13601 38 1.18459 38 1.23317 37.9919L8.42299 37.0202C9.02214 36.9392 9.44316 36.3886 9.3622 35.7894C9.28123 35.1901 8.73066 34.7691 8.13151 34.85L2.3667 35.6274L3.49214 27.3031L12.2527 36.0647C12.4551 36.2671 12.7385 36.3886 13.0219 36.3886C13.3053 36.3886 13.5886 36.2752 13.7911 36.0647L35.5386 14.3226C37.1256 12.7355 38 10.6301 38 8.38709C38 6.14405 37.1256 4.03868 35.5386 2.45965ZM24.0981 5.13185L27.7497 8.78387L7.9048 28.6311L4.25322 24.9791L24.0981 5.13185ZM13.03 33.7488L9.45936 30.1777L29.3042 10.3305L32.8748 13.9016L13.03 33.7488ZM34.397 12.3387L25.6607 3.60141C26.77 2.68638 28.1545 2.18433 29.6119 2.18433C31.2717 2.18433 32.8263 2.83213 34.0003 3.99819C35.1743 5.16424 35.8139 6.72708 35.8139 8.38709C35.8139 9.85275 35.3119 11.2293 34.397 12.3387Z" fill="#60676C"/>
</svg>
