<svg width="33" height="35" viewBox="0 0 33 35" fill="none" xmlns="http://www.w3.org/2000/svg">
<path d="M28.1335 34.7603H20.5453C20.2477 34.7603 20.0989 34.6098 19.9501 34.3088L12.6594 21.3678C12.5107 21.0668 12.5107 20.9164 12.6594 20.6154L23.8186 0.451432C23.9674 0.150477 24.265 8.96915e-09 24.4138 8.96915e-09H32.0021C32.2996 8.96915e-09 32.4484 0.150477 32.5972 0.300955C32.746 0.60191 32.746 0.752387 32.5972 1.05334L21.5868 20.7659L28.5799 33.406C28.7287 33.7069 28.7287 33.8574 28.5799 34.1584C28.5799 34.6098 28.4311 34.7603 28.1335 34.7603ZM20.9916 33.2555H26.7944L20.2477 21.3678C20.0989 21.0668 20.0989 20.9164 20.2477 20.6154L30.8117 1.65525H25.009L14.1473 21.0668L20.9916 33.2555Z" fill="#4D4D4D"/>
<path d="M8.18353 25.0273H0.768008C0.459028 25.0273 0.304537 24.8735 0.150047 24.5658C-0.00444292 24.2581 -0.00444292 24.1042 0.150047 23.7965L5.71169 14.5651L1.54046 7.3338C1.38597 7.02608 1.38597 6.87223 1.54046 6.56451C1.69495 6.2568 2.00393 6.2568 2.15842 6.2568H9.57394C9.88292 6.2568 10.0374 6.41065 10.1919 6.71837L14.5176 14.4112C14.6721 14.7189 14.6721 14.8728 14.5176 15.1805L8.95598 24.7196C8.80149 25.0273 8.49251 25.0273 8.18353 25.0273ZM2.15842 23.4888H7.72006L13.1272 14.5651L9.26496 7.64151H3.54883L7.25659 14.2574C7.41108 14.5651 7.41108 14.8728 7.25659 15.0266L2.15842 23.4888Z" fill="#4D4D4D"/>
</svg>
